<svg width="31" height="30" viewBox="0 0 31 30" fill="none" xmlns="http://www.w3.org/2000/svg">
<path fill-rule="evenodd" clip-rule="evenodd" d="M30.4707 15C30.4707 6.71637 23.7543 0 15.4707 0C7.18707 0 0.470703 6.71637 0.470703 15C0.470703 22.4863 5.95522 28.6921 13.1272 29.8187V19.337H9.31755V15H13.1272V11.6945C13.1272 7.93553 15.3674 5.85776 18.793 5.85776C20.4341 5.85776 22.1512 6.15096 22.1512 6.15096V9.84248H20.259C18.3965 9.84248 17.8142 10.9984 17.8142 12.186V14.9999H21.9739L21.3094 19.3369H17.8141V29.8186C24.9861 28.6941 30.4706 22.4882 30.4706 14.9999L30.4707 15Z" fill="#777777"/>
<path fill-rule="evenodd" clip-rule="evenodd" d="M21.3098 19.337L21.9742 15H17.8145V12.1862C17.8145 11.0007 18.3946 9.84263 20.2593 9.84263H22.1515V6.15111C22.1515 6.15111 20.4345 5.85791 18.7933 5.85791C15.3677 5.85791 13.1275 7.9336 13.1275 11.6947V15.0001H9.31787V19.3371H13.1275V29.8188C13.8911 29.9389 14.6737 30.0001 15.471 30.0001C16.2684 30.0001 17.051 29.9368 17.8145 29.8188V19.3371H21.3099L21.3098 19.337Z" fill="#FEFEFE"/>
</svg>
