<svg width="31" height="30" viewBox="0 0 31 30" fill="none" xmlns="http://www.w3.org/2000/svg">
<g clip-path="url(#clip0_17_125)">
<path d="M15.6724 7.35703C15.4086 7.35703 15.1477 7.37049 14.8906 7.39682C14.6335 7.42315 14.38 7.46217 14.1308 7.5134C13.8815 7.56462 13.6368 7.62806 13.3969 7.70292L12.6928 7.96146L12.0224 8.28515L11.3898 8.67006L10.7988 9.11216L10.2534 9.6076L9.75744 10.1525L9.31487 10.7429L8.92947 11.3749L8.60559 12.0445C8.50823 12.2735 8.42163 12.5083 8.34667 12.748C8.27171 12.9877 8.20827 13.2324 8.15695 13.4813C8.10563 13.7303 8.06661 13.9835 8.04018 14.2404C8.01375 14.4973 8.00049 14.7579 8.00049 15.0215C8.00049 15.285 8.01394 15.5456 8.04018 15.8025C8.06627 16.0574 8.10524 16.3108 8.15695 16.5617C8.20827 16.8116 8.27171 17.0553 8.34667 17.295C8.42163 17.5347 8.50813 17.7694 8.60559 17.9985L8.92947 18.6681L9.31487 19.3L9.75744 19.8905L10.2534 20.4354L10.7988 20.9309L11.3898 21.373L12.0224 21.7579L12.6928 22.0816L13.3969 22.3401L14.1308 22.5296C14.3819 22.5813 14.6355 22.6202 14.8906 22.6463C15.1504 22.6728 15.4113 22.6861 15.6724 22.686C15.9362 22.686 16.1972 22.6726 16.4542 22.6463C16.7093 22.6202 16.9629 22.5813 17.214 22.5296L17.948 22.3401L18.6521 22.0816L19.3223 21.7579L19.955 21.373L20.5461 20.9309L21.0916 20.4354L21.5875 19.8905L22.0301 19.3L22.4155 18.6681L22.7394 17.9985L22.9983 17.295C23.0732 17.0553 23.1367 16.8106 23.188 16.5617L23.3048 15.8024C23.3311 15.5456 23.3446 15.2849 23.3446 15.0214C23.3446 14.7578 23.3311 14.4972 23.3048 14.2403C23.2787 13.9855 23.2397 13.7321 23.188 13.4812C23.1367 13.2314 23.0732 12.9877 22.9983 12.7479L22.7394 12.0444L22.4155 11.3748L22.0301 10.7428L21.5875 10.1524L21.0916 9.6075L20.5461 9.11206L19.955 8.66997L19.3223 8.28505L18.6521 7.96136L17.948 7.70283L17.214 7.5133L16.4542 7.39672C16.1944 7.3702 15.9335 7.35691 15.6724 7.35693V7.35703ZM15.6724 10.0025C15.8469 10.0025 16.019 10.0112 16.1885 10.0283L16.6883 10.1039L17.171 10.2269L17.6333 10.3948L18.0728 10.6053L18.4861 10.8557L18.8724 11.1437L19.2286 11.4668L19.552 11.8226L19.8404 12.2086L20.091 12.6224L20.3015 13.0616C20.3647 13.2119 20.4208 13.366 20.4697 13.5235C20.5185 13.6811 20.5595 13.842 20.5927 14.006C20.6258 14.17 20.6504 14.3368 20.6683 14.5062L20.6941 15.022C20.6941 15.1962 20.6854 15.3682 20.6683 15.5378C20.6512 15.7073 20.626 15.8741 20.5927 16.038C20.5593 16.2019 20.5182 16.3629 20.4697 16.5205L20.3015 16.9824L20.091 17.4216L19.8404 17.8353L19.552 18.2214L19.2286 18.5772L18.8724 18.9003L18.4861 19.1883L18.0728 19.4387L17.6333 19.6492L17.171 19.8171L16.6883 19.9401L16.1885 20.0156C16.017 20.0328 15.8447 20.0414 15.6723 20.0414C15.4999 20.0414 15.3276 20.0328 15.156 20.0156L14.6563 19.9401C14.4922 19.9068 14.3311 19.8657 14.1734 19.8171L13.7111 19.6492L13.2716 19.4387L12.8584 19.1883L12.472 18.9003L12.1158 18.5772L11.7924 18.2214L11.5041 17.8353L11.2535 17.4216L11.043 16.9824L10.8748 16.5205L10.7518 16.038L10.6761 15.5378C10.6589 15.3664 10.6503 15.1942 10.6504 15.022C10.6503 14.8497 10.6589 14.6776 10.6761 14.5062C10.6932 14.3368 10.7184 14.1699 10.7518 14.006C10.7848 13.8433 10.8259 13.6823 10.8749 13.5236L11.0431 13.0617L11.2536 12.6225L11.5042 12.2087L11.7925 11.8227L12.1159 11.4669L12.4721 11.1438L12.8585 10.8558L13.2717 10.6054L13.7112 10.3949C13.8625 10.3314 14.0168 10.2754 14.1736 10.227L14.6565 10.104C14.8205 10.0707 14.9876 10.0454 15.1562 10.0284C15.3278 10.0112 15.5001 10.0026 15.6725 10.0026L15.6724 10.0025Z" fill="url(#paint0_radial_17_125)"/>
<path d="M23.6556 5.17676C23.5947 5.17677 23.5338 5.17985 23.4732 5.18598C23.4126 5.19211 23.3523 5.20128 23.2926 5.21347C23.2329 5.22565 23.1739 5.24082 23.1157 5.25893C23.0575 5.27705 23.0002 5.2981 22.9441 5.32198C22.888 5.34589 22.8332 5.37261 22.7797 5.40204C22.7262 5.43141 22.6743 5.46345 22.624 5.49805C22.5737 5.53268 22.5252 5.56983 22.4786 5.60934C22.432 5.64882 22.3874 5.69061 22.345 5.73457C22.3026 5.77856 22.2623 5.82465 22.2245 5.87268C22.1866 5.92071 22.1512 5.97062 22.1183 6.02222C22.0854 6.07378 22.0551 6.12696 22.0275 6.18157C21.9998 6.23622 21.9749 6.29222 21.9528 6.34938C21.9307 6.40652 21.9115 6.46474 21.8952 6.52381C21.8789 6.58288 21.8656 6.64274 21.8552 6.70315C21.8449 6.76355 21.8375 6.82443 21.8332 6.88556C21.8302 6.92887 21.8286 6.97228 21.8286 7.01569C21.8286 7.07703 21.8317 7.13833 21.8377 7.19936C21.8438 7.26036 21.8529 7.32101 21.865 7.3811C21.8771 7.44118 21.8922 7.50062 21.9102 7.55919C21.9282 7.61777 21.9491 7.67541 21.9729 7.73189C21.9966 7.78839 22.0231 7.84366 22.0524 7.89749C22.0815 7.95131 22.1134 8.00362 22.1478 8.05424C22.1822 8.10482 22.2191 8.15364 22.2583 8.20052C22.2975 8.24743 22.3391 8.29233 22.3828 8.33507C22.4265 8.37778 22.4723 8.41826 22.52 8.45636C22.5677 8.49448 22.6173 8.53019 22.6686 8.56333C22.7199 8.59647 22.7728 8.627 22.8271 8.65482C22.8814 8.68265 22.937 8.70774 22.9937 8.72998C23.0505 8.75219 23.1083 8.77153 23.167 8.78793C23.2257 8.8043 23.2852 8.81771 23.3452 8.8281C23.4052 8.83854 23.4657 8.84595 23.5265 8.85031C23.5695 8.85338 23.6126 8.85492 23.6557 8.85492C23.7166 8.85494 23.7775 8.85189 23.8381 8.84579C23.8988 8.83966 23.959 8.83049 24.0187 8.8183C24.0784 8.80613 24.1375 8.79096 24.1957 8.77284C24.2539 8.75472 24.3111 8.73368 24.3672 8.70979C24.4233 8.68592 24.4782 8.65923 24.5317 8.62983C24.5851 8.60043 24.6371 8.56835 24.6874 8.53372C24.7376 8.49912 24.7862 8.46201 24.8328 8.42253C24.8793 8.38302 24.9239 8.34119 24.9664 8.2972C25.0088 8.25322 25.049 8.20712 25.0869 8.15909C25.1247 8.11106 25.1602 8.06115 25.1931 8.00955C25.226 7.95796 25.2563 7.90474 25.2839 7.85011C25.3116 7.79546 25.3365 7.73946 25.3586 7.6823C25.3806 7.62516 25.3999 7.56694 25.4161 7.50786C25.4324 7.44879 25.4458 7.38894 25.4561 7.32853C25.4665 7.26813 25.4738 7.20725 25.4781 7.14611C25.4812 7.1028 25.4827 7.0594 25.4827 7.01598C25.4827 6.95468 25.4797 6.89341 25.4736 6.83242C25.4675 6.77142 25.4584 6.71076 25.4463 6.65067C25.4342 6.59059 25.4191 6.53115 25.4011 6.47259C25.3831 6.414 25.3622 6.35636 25.3385 6.29988C25.3148 6.24338 25.2882 6.18811 25.259 6.13428C25.2298 6.08046 25.198 6.02815 25.1636 5.97753C25.1291 5.92691 25.0922 5.87806 25.0529 5.83116C25.0137 5.78425 24.9722 5.73934 24.9286 5.69661C24.8849 5.6539 24.8391 5.61342 24.7913 5.57532C24.7436 5.53722 24.694 5.50156 24.6428 5.46845C24.5915 5.43531 24.5386 5.40477 24.4843 5.37695C24.43 5.34912 24.3744 5.32403 24.3176 5.30179C24.2609 5.27958 24.203 5.26024 24.1443 5.24384C24.0857 5.22744 24.0262 5.214 23.9662 5.20357C23.9061 5.19317 23.8456 5.18579 23.7849 5.18147C23.7419 5.17839 23.6988 5.17686 23.6556 5.17685V5.17676Z" fill="url(#paint1_radial_17_125)"/>
<path d="M14.2178 0.027135C13.3833 0.0257894 12.6387 0.0292489 11.9698 0.0386675L10.1764 0.0867216C9.64512 0.109788 9.17573 0.139867 8.75439 0.178791C8.54372 0.198205 8.34497 0.219926 8.15659 0.243857C7.97734 0.26645 7.79857 0.292758 7.62041 0.322763C7.45078 0.351595 7.28979 0.382733 7.13544 0.416563C6.98109 0.450393 6.83366 0.486916 6.69142 0.526128C6.55237 0.564472 6.4144 0.606648 6.27768 0.652607C6.1437 0.697778 6.013 0.74564 5.88392 0.79677C5.62578 0.899029 5.37397 1.01378 5.11467 1.14237C4.91515 1.24136 4.73081 1.34161 4.55571 1.44771C4.3806 1.55381 4.21471 1.66588 4.05229 1.78793C3.88502 1.91424 3.7238 2.04837 3.56915 2.18986C3.4075 2.3371 3.24239 2.49904 3.07083 2.68001C2.85526 2.90615 2.66795 3.11702 2.50168 3.32394C2.41855 3.42735 2.3407 3.52961 2.26737 3.63244C2.19485 3.73379 2.12552 3.83738 2.05949 3.94306C1.99413 4.04782 1.93224 4.1545 1.87304 4.26426C1.81291 4.37591 1.75608 4.4893 1.70263 4.60429C1.59326 4.83918 1.4912 5.09214 1.38932 5.3745C1.31374 5.58325 1.24607 5.79477 1.18644 6.00862C1.1256 6.22717 1.07149 6.45582 1.02325 6.7031C0.974999 6.95039 0.932904 7.21632 0.895902 7.51041C0.856029 7.83278 0.824175 8.15609 0.80037 8.48005C0.77346 8.83623 0.751163 9.22816 0.732902 9.66439L0.689654 11.1149L0.666396 12.883L0.659668 15.0201L0.67937 18.128L0.740879 20.4826L0.788261 21.4024L0.847464 22.1645C0.866442 22.3699 0.890187 22.5749 0.91868 22.7792C0.944629 22.9607 0.9725 23.1195 1.00249 23.2569C1.06333 23.5363 1.13528 23.8132 1.21815 24.0869C1.29751 24.3489 1.38826 24.6074 1.49014 24.8615C1.59028 25.1104 1.69985 25.3505 1.81902 25.5816C1.9382 25.8126 2.06698 26.0346 2.20538 26.2479C2.34377 26.4611 2.49178 26.6657 2.64978 26.8614C2.8076 27.0572 2.97548 27.2447 3.15272 27.4231C3.33023 27.6018 3.51745 27.772 3.71476 27.9336C3.9144 28.0971 4.12192 28.2507 4.33658 28.394C4.53581 28.5272 4.73293 28.6491 4.93149 28.7611C5.13005 28.8731 5.33034 28.9747 5.5362 29.067C5.74207 29.1594 5.95312 29.2425 6.17359 29.3173C6.39406 29.3921 6.62376 29.4586 6.86653 29.5176C7.1093 29.5766 7.3663 29.6284 7.63828 29.6736C7.91027 29.7187 8.201 29.7575 8.51162 29.7908C8.82224 29.8242 9.15362 29.8517 9.5097 29.8748C9.86578 29.8979 10.2464 29.9163 10.6553 29.9311C11.287 29.954 12.2433 29.9674 13.3461 29.9725L16.916 29.9652L20.2965 29.9179L21.5819 29.8817L22.4193 29.8387C22.599 29.8241 22.7749 29.8068 22.9446 29.7865C23.1143 29.7662 23.2817 29.743 23.4447 29.7167C23.6077 29.6904 23.7671 29.661 23.9236 29.6283C24.0784 29.5961 24.2323 29.5601 24.3853 29.5204C24.5368 29.4819 24.6862 29.4382 24.834 29.3918C24.9818 29.3453 25.1281 29.2952 25.2735 29.2414C25.4197 29.1872 25.5646 29.1295 25.7081 29.0683C25.8525 29.0068 25.9968 28.941 26.1415 28.8712C26.3638 28.7642 26.5428 28.6749 26.6999 28.5877C26.8477 28.5066 26.9901 28.416 27.1261 28.3163C27.2602 28.2175 27.3936 28.1051 27.5474 27.9634C27.7012 27.8217 27.8754 27.6511 28.0912 27.4352C28.2808 27.2457 28.4407 27.0809 28.5786 26.9311C28.7166 26.7813 28.8328 26.6464 28.9346 26.5165C29.0317 26.3932 29.1222 26.2648 29.2057 26.1319C29.2871 26.0021 29.362 25.8674 29.4384 25.7179C29.5534 25.493 29.6556 25.2848 29.7472 25.0838C29.8362 24.8901 29.9174 24.693 29.9908 24.4929C30.063 24.2944 30.1256 24.0925 30.1783 23.8879C30.2325 23.6775 30.2792 23.4553 30.3195 23.2115C30.3599 22.9678 30.394 22.7025 30.4236 22.4063C30.4532 22.1101 30.4784 21.7828 30.5005 21.415L30.5591 20.1803L30.6095 18.6447L30.6455 16.934L30.6593 15.1453L30.6272 11.632L30.5842 10.0584L30.5256 8.70734L30.4526 7.654C30.426 7.36087 30.3974 7.13002 30.367 6.97394C30.3334 6.80148 30.2959 6.62982 30.2544 6.45908C30.214 6.29295 30.1696 6.12782 30.1213 5.96384C30.0741 5.80407 30.0229 5.64554 29.9677 5.48839C29.9131 5.33318 29.8552 5.18123 29.7947 5.03255C29.7341 4.88387 29.6686 4.73865 29.6004 4.59651C29.5321 4.45436 29.4606 4.31568 29.3856 4.18016C29.3105 4.04465 29.2323 3.9125 29.1505 3.78362C29.0687 3.65474 28.9835 3.52913 28.8948 3.40688C28.8066 3.28502 28.7147 3.16595 28.619 3.04984C28.5238 2.93436 28.4251 2.82192 28.3228 2.71269C28.2207 2.60359 28.1151 2.49775 28.0063 2.39534C27.8974 2.29289 27.7853 2.1937 27.6696 2.09779C27.5534 2.00155 27.4343 1.90896 27.3124 1.82013C27.1892 1.73039 27.0633 1.64443 26.9349 1.56237C26.8047 1.47913 26.6721 1.39978 26.5372 1.3244C26.4 1.24777 26.2605 1.17508 26.1191 1.10643C25.8844 0.992348 25.6674 0.891148 25.4544 0.801383C25.2449 0.712296 25.0314 0.633174 24.8145 0.564283C24.5963 0.495566 24.3692 0.436652 24.1193 0.385811C23.8694 0.334969 23.597 0.292585 23.2886 0.256545C22.9801 0.220504 22.6358 0.191384 22.2419 0.167165C21.8481 0.142945 21.4051 0.123915 20.8993 0.108537L19.1803 0.0700945L17.0047 0.0444337L14.2187 0.0273256L14.2178 0.027135ZM15.6647 2.6703L19.6823 2.69318L21.1979 2.72239C21.6153 2.73412 21.9338 2.74786 22.1206 2.76372C22.3637 2.78419 22.5953 2.80985 22.8169 2.84061C23.0295 2.86997 23.241 2.90647 23.4512 2.95007C23.653 2.99236 23.8455 3.04042 24.0297 3.09462C24.214 3.14883 24.39 3.20957 24.5588 3.27675C24.7277 3.34393 24.8891 3.41783 25.0445 3.49876C25.1987 3.57907 25.3485 3.66745 25.4934 3.76353C25.6375 3.85916 25.7765 3.96219 25.9114 4.0732C26.0464 4.1842 26.1772 4.30318 26.3049 4.43043C26.4398 4.56469 26.5641 4.70146 26.6788 4.84254C26.793 4.98275 26.8987 5.12971 26.9953 5.28262C27.0929 5.43771 27.1809 5.59868 27.2588 5.76461C27.3384 5.93376 27.4099 6.11252 27.4741 6.30252C27.5383 6.49253 27.5955 6.69445 27.6461 6.91022C27.6992 7.13897 27.7436 7.36963 27.7793 7.60172C27.8178 7.84775 27.8506 8.11013 27.8785 8.39105C27.9064 8.67198 27.9294 8.97155 27.9485 9.29207C27.9636 9.54916 27.9769 9.88842 27.9882 10.2891L28.0163 11.6553L28.0378 15.0018L28.0133 18.3451L27.9839 19.7073L27.9435 20.6981C27.9154 21.162 27.8858 21.552 27.8504 21.8915C27.8327 22.0612 27.8134 22.2182 27.7921 22.3656C27.7721 22.5048 27.7484 22.6434 27.7211 22.7813C27.6961 22.9072 27.6671 23.0322 27.6341 23.1562C27.6025 23.2745 27.567 23.3917 27.5275 23.5076C27.4878 23.6241 27.4445 23.7394 27.3979 23.8532C27.3485 23.9735 27.2964 24.0926 27.2417 24.2105C27.193 24.3157 27.1417 24.4181 27.0875 24.5177C27.0339 24.6164 26.977 24.7132 26.9168 24.808C26.8572 24.9019 26.7948 24.9931 26.7294 25.0814C26.6644 25.1694 26.5963 25.2551 26.5251 25.3382C26.4541 25.421 26.3802 25.5011 26.3034 25.5785C26.2265 25.6558 26.1467 25.7305 26.0641 25.8026C25.9814 25.8747 25.8957 25.9439 25.807 26.0106C25.7183 26.0773 25.6265 26.1413 25.5316 26.2026C25.4368 26.2639 25.3389 26.3227 25.2379 26.3789C25.1369 26.435 25.0327 26.4886 24.9256 26.5397C24.8165 26.5915 24.706 26.64 24.5941 26.6852C24.4784 26.7318 24.3614 26.7753 24.2433 26.8154C24.003 26.8973 23.7496 26.9692 23.4828 27.0312C23.2047 27.0954 22.9241 27.1479 22.6417 27.1886C22.533 27.2044 22.2835 27.2193 21.9259 27.2332L20.5635 27.271L16.7009 27.3212L12.658 27.3276L11.0703 27.3106L10.0394 27.2785L9.27914 27.2251C9.0431 27.2052 8.82359 27.1831 8.61791 27.158C8.41224 27.1329 8.2207 27.105 8.0405 27.0734C7.86973 27.0439 7.7 27.0087 7.5316 26.9677C7.37806 26.9304 7.22608 26.8868 7.07605 26.8372C6.93141 26.7892 6.79311 26.7363 6.65855 26.6782C6.524 26.62 6.3933 26.5563 6.26384 26.4867C6.13438 26.4171 6.00627 26.3416 5.87671 26.2592C5.77897 26.1971 5.6845 26.1343 5.59358 26.0677C5.50266 26.0011 5.41482 25.9347 5.33024 25.8651C5.24567 25.7955 5.16446 25.7238 5.08613 25.65C5.00832 25.5765 4.93318 25.5003 4.86085 25.4214C4.78877 25.3428 4.71986 25.2619 4.65374 25.1781C4.58736 25.094 4.52411 25.0074 4.46411 24.9186C4.40323 24.8284 4.34563 24.7361 4.29141 24.6418C4.23663 24.5467 4.18454 24.4482 4.13504 24.3468C4.08471 24.2433 4.03776 24.1383 3.99424 24.0318C3.95003 23.9234 3.90813 23.8115 3.86872 23.696C3.78991 23.4649 3.72072 23.2188 3.66055 22.9565C3.60039 22.6941 3.54907 22.4154 3.50563 22.1184C3.46219 21.8214 3.4272 21.5066 3.39933 21.1719C3.37876 20.9254 3.36242 20.5414 3.34993 20.0571L3.32379 18.3343L3.3334 13.9426L3.40904 9.74618L3.4667 8.26765L3.49938 7.77894C3.51072 7.64842 3.52245 7.55174 3.53446 7.49369C3.57406 7.30272 3.61394 7.12502 3.65517 6.95865C3.69369 6.80171 3.73654 6.64586 3.78367 6.49128C3.82845 6.34539 3.87564 6.20872 3.9261 6.07926C3.97475 5.95386 4.02898 5.83068 4.08862 5.71011C4.14686 5.59286 4.20943 5.48061 4.27738 5.37133C4.34532 5.26205 4.41866 5.15605 4.49862 5.05062C4.57858 4.94519 4.66469 4.8411 4.7584 4.73557C4.8521 4.63005 4.95331 4.52346 5.06306 4.41361C5.19098 4.28497 5.32417 4.16168 5.4623 4.04408C5.59272 3.93312 5.72873 3.82889 5.86979 3.73182C6.00848 3.63571 6.15072 3.55017 6.29882 3.47156C6.44692 3.39294 6.60089 3.32192 6.76283 3.25801C6.92477 3.19409 7.09489 3.13691 7.27509 3.08501C7.4644 3.03191 7.65582 2.9866 7.84886 2.94921C8.05184 2.90942 8.26741 2.87473 8.49759 2.84445C8.72777 2.81418 8.97265 2.78804 9.23445 2.76535C9.41705 2.74959 9.73171 2.73556 10.146 2.72374L11.654 2.69395L15.6653 2.66944L15.6647 2.6703Z" fill="url(#paint2_radial_17_125)"/>
</g>
<defs>
<radialGradient id="paint0_radial_17_125" cx="0" cy="0" r="1" gradientUnits="userSpaceOnUse" gradientTransform="translate(5.43891 32.1555) rotate(-9.53101) scale(63.4037 38.4857)">
<stop stop-color="#777777"/>
<stop offset="0.263" stop-color="#777777"/>
<stop offset="0.609" stop-color="#777777"/>
<stop offset="1" stop-color="#777777"/>
</radialGradient>
<radialGradient id="paint1_radial_17_125" cx="0" cy="0" r="1" gradientUnits="userSpaceOnUse" gradientTransform="translate(5.43899 32.1555) rotate(-9.53102) scale(63.4037 38.4857)">
<stop stop-color="#777777"/>
<stop offset="0.263" stop-color="#777777"/>
<stop offset="0.609" stop-color="#777777"/>
<stop offset="1" stop-color="#777777"/>
</radialGradient>
<radialGradient id="paint2_radial_17_125" cx="0" cy="0" r="1" gradientUnits="userSpaceOnUse" gradientTransform="translate(5.43913 32.1554) rotate(-9.53101) scale(63.4037 38.4857)">
<stop stop-color="#777777"/>
<stop offset="0.263" stop-color="#777777"/>
<stop offset="0.609" stop-color="#777777"/>
<stop offset="1" stop-color="#777777"/>
</radialGradient>
<clipPath id="clip0_17_125">
<rect width="30" height="30" fill="white" transform="translate(0.65918)"/>
</clipPath>
</defs>
</svg>
