<svg width="36" height="30" viewBox="0 0 36 30" fill="none" xmlns="http://www.w3.org/2000/svg">
<g clip-path="url(#clip0_17_112)">
<path d="M33.9323 28.0632C34.0078 28.0639 34.0826 28.0492 34.1522 28.0198C34.2217 27.9904 34.2845 27.9471 34.3366 27.8924C34.3887 27.8378 34.429 27.773 34.4551 27.7021C34.4811 27.6313 34.4923 27.5558 34.4879 27.4804C34.4879 27.0671 34.2386 26.8696 33.727 26.8696H32.9004V29.0335H33.2113V28.0903H33.5933L33.6021 28.1018L34.195 29.0335H34.5274L33.8895 28.0692L33.9323 28.0632ZM33.5727 27.8464H33.2122V27.1149H33.6691C33.9052 27.1149 34.1743 27.1534 34.1743 27.4625C34.1743 27.818 33.902 27.8464 33.5709 27.8464" fill="#777777"/>
<path d="M25.8223 25.3518H21.4136V18.4477C21.4136 16.8013 21.3842 14.6819 19.1207 14.6819C16.8245 14.6819 16.4732 16.4757 16.4732 18.3278V25.3514H12.0645V11.1536H16.2968V13.0939H16.3561C16.7796 12.3697 17.3917 11.774 18.127 11.3701C18.8624 10.9662 19.6935 10.7694 20.5319 10.8005C25.0003 10.8005 25.8241 13.7396 25.8241 17.5632L25.8223 25.3518ZM7.09008 9.21291C6.58408 9.213 6.0894 9.06304 5.66862 8.782C5.24784 8.50095 4.91988 8.10144 4.72616 7.63399C4.53243 7.16654 4.48166 6.65214 4.58029 6.15584C4.67892 5.65954 4.92251 5.20364 5.28024 4.84577C5.63798 4.48791 6.0938 4.24416 6.59006 4.14536C7.08633 4.04655 7.60073 4.09712 8.06825 4.29068C8.53578 4.48424 8.9354 4.81208 9.21659 5.23275C9.49779 5.65343 9.64793 6.14805 9.64802 6.65405C9.64808 6.99002 9.58196 7.32272 9.45344 7.63314C9.32493 7.94356 9.13655 8.22563 8.89902 8.46324C8.66149 8.70086 8.37947 8.88936 8.06909 9.01798C7.75872 9.14661 7.42605 9.21285 7.09008 9.21291ZM9.2944 25.3518H4.88116V11.1536H9.2944V25.3518ZM28.0202 0.00202714H2.66582C2.09035 -0.00446707 1.53581 0.217774 1.12411 0.619913C0.712417 1.02205 0.477238 1.57119 0.470215 2.14665V27.6062C0.476998 28.1819 0.712039 28.7315 1.12372 29.134C1.53541 29.5366 2.09006 29.7592 2.66582 29.7531H28.0202C28.5971 29.7604 29.1533 29.5383 29.5666 29.1358C29.9799 28.7332 30.2165 28.1831 30.2245 27.6062V2.14482C30.2163 1.56821 29.9795 1.01845 29.5662 0.61632C29.1529 0.21419 28.5968 -0.0074153 28.0202 0.000189456" fill="#777777"/>
<path d="M33.6105 25.9058C33.0741 25.9109 32.5616 26.1283 32.185 26.5103C31.8085 26.8923 31.5985 27.4079 31.6011 27.9443C31.6037 28.4807 31.8186 28.9943 32.1988 29.3727C32.579 29.751 33.0936 29.9635 33.63 29.9635C34.1664 29.9635 34.681 29.751 35.0612 29.3727C35.4414 28.9943 35.6563 28.4807 35.6589 27.9443C35.6615 27.4079 35.4515 26.8923 35.075 26.5103C34.6984 26.1283 34.1859 25.9109 33.6495 25.9058H33.6105ZM33.6105 29.7312C33.2587 29.737 32.913 29.6384 32.6172 29.4478C32.3214 29.2573 32.0888 28.9832 31.9488 28.6604C31.8087 28.3376 31.7675 27.9806 31.8304 27.6344C31.8933 27.2882 32.0575 26.9684 32.3021 26.7155C32.5467 26.4626 32.8609 26.2879 33.2048 26.2135C33.5487 26.1391 33.907 26.1684 34.2342 26.2976C34.5615 26.4268 34.8431 26.6502 35.0435 26.9395C35.2438 27.2287 35.3538 27.5709 35.3597 27.9227C35.3597 27.9328 35.3597 27.9425 35.3597 27.9526C35.3695 28.4141 35.1957 28.8606 34.8763 29.194C34.557 29.5274 34.1184 29.7203 33.6568 29.7303H33.6109" fill="#777777"/>
</g>
<defs>
<clipPath id="clip0_17_112">
<rect width="35.1884" height="30" fill="white" transform="translate(0.470703)"/>
</clipPath>
</defs>
</svg>
