<svg width="37" height="30" viewBox="0 0 37 30" fill="none" xmlns="http://www.w3.org/2000/svg">
<g clip-path="url(#clip0_2_127)">
<path d="M32.6396 7.54266C32.6617 7.86178 32.6617 8.1809 32.6617 8.50295C32.6617 18.3162 25.1911 29.6338 11.5308 29.6338V29.628C7.4955 29.6338 3.54403 28.478 0.146973 26.2985C0.733737 26.3691 1.32344 26.4044 1.91462 26.4059C5.25874 26.4088 8.50727 25.2868 11.1381 23.2206C7.96021 23.1603 5.17344 21.0882 4.19991 18.0632C5.31315 18.278 6.46021 18.2338 7.55285 17.9353C4.08815 17.2353 1.5955 14.1912 1.5955 10.6559C1.5955 10.6235 1.5955 10.5927 1.5955 10.5618C2.62785 11.1368 3.78374 11.4559 4.96609 11.4912C1.70285 9.31031 0.696973 4.96913 2.66756 1.57501C6.43815 6.21472 12.0014 9.03531 17.9734 9.33384C17.3749 6.75442 18.1926 4.05148 20.122 2.23825C23.1131 -0.573517 27.8176 -0.429399 30.6293 2.56031C32.2926 2.23237 33.8867 1.62207 35.3455 0.757366C34.7911 2.47648 33.6308 3.93678 32.0808 4.86472C33.5528 4.69119 34.9911 4.29707 36.3455 3.6956C35.3484 5.18972 34.0926 6.49119 32.6396 7.54266Z" fill="#777777"/>
</g>
<defs>
<clipPath id="clip0_2_127">
<rect width="36.4706" height="30" fill="white"/>
</clipPath>
</defs>
</svg>
