<svg width="24" height="20" viewBox="0 0 24 20" fill="none" xmlns="http://www.w3.org/2000/svg">
<path fill-rule="evenodd" clip-rule="evenodd" d="M20.4366 7.12198H0.897552C0.658858 7.12198 0.429952 7.02721 0.261169 6.85843C0.0923867 6.68965 -0.00244141 6.46065 -0.00244141 6.22196C-0.00244141 5.98326 0.0923867 5.75439 0.261169 5.5856C0.429952 5.41682 0.658858 5.32193 0.897552 5.32193H20.4386C20.7874 5.32193 21.1285 5.21853 21.4186 5.02481C21.7088 4.83109 21.935 4.55577 22.0687 4.23355C22.2025 3.91133 22.2377 3.55675 22.17 3.21451C22.1023 2.87227 21.9347 2.55774 21.6884 2.3107C21.442 2.06366 21.128 1.89512 20.7859 1.82645C20.4439 1.75778 20.0892 1.79202 19.7666 1.92484C19.444 2.05766 19.168 2.28319 18.9734 2.57279C18.7789 2.86238 18.6745 3.20317 18.6736 3.55203C18.6736 3.79073 18.5787 4.0196 18.4099 4.18839C18.2412 4.35717 18.0123 4.45194 17.7736 4.45194C17.5349 4.45194 17.306 4.35717 17.1372 4.18839C16.9684 4.0196 16.8736 3.79073 16.8736 3.55203C16.8753 2.84821 17.0857 2.16058 17.4779 1.5762C17.8702 0.99183 18.4268 0.536912 19.0776 0.268709C19.7283 0.000506431 20.4439 -0.068886 21.134 0.0693686C21.8242 0.207623 22.4578 0.547271 22.955 1.04544C23.4522 1.54361 23.7907 2.17793 23.9276 2.86832C24.0645 3.55871 23.9937 4.27415 23.7242 4.92435C23.4547 5.57455 22.9986 6.13039 22.4135 6.52152C21.8283 6.91265 21.1404 7.12158 20.4366 7.12198ZM22.7366 10.922H0.897552C0.658858 10.922 0.429952 10.8271 0.261169 10.6584C0.0923867 10.4896 -0.00244141 10.2607 -0.00244141 10.022C-0.00244141 9.78331 0.0923867 9.55431 0.261169 9.38553C0.429952 9.21675 0.658858 9.12198 0.897552 9.12198H22.7426C22.9812 9.12225 23.2101 9.21729 23.3787 9.38626C23.5473 9.55523 23.6418 9.78429 23.6416 10.023C23.6413 10.2617 23.5462 10.4905 23.3773 10.6591C23.2083 10.8277 22.9793 10.9223 22.7406 10.922H22.7366ZM20.4366 19.992C19.4927 19.9907 18.5879 19.6152 17.9204 18.9479C17.2529 18.2806 16.8771 17.3758 16.8755 16.4319C16.8755 16.1932 16.9704 15.9643 17.1392 15.7956C17.3079 15.6268 17.5369 15.532 17.7756 15.532C18.0143 15.532 18.2432 15.6268 18.412 15.7956C18.5807 15.9643 18.6756 16.1932 18.6756 16.4319C18.6766 16.7808 18.7809 17.1216 18.9754 17.4112C19.17 17.7008 19.446 17.9263 19.7686 18.0591C20.0912 18.1919 20.4459 18.2262 20.7879 18.1575C21.13 18.0888 21.444 17.9203 21.6904 17.6733C21.9367 17.4262 22.1043 17.1117 22.172 16.7694C22.2397 16.4272 22.2044 16.0726 22.0707 15.7504C21.937 15.4282 21.7108 15.1529 21.4206 14.9591C21.1305 14.7654 20.7894 14.662 20.4406 14.662H0.897552C0.658858 14.662 0.429952 14.5671 0.261169 14.3983C0.0923867 14.2296 -0.00244141 14.0007 -0.00244141 13.762C-0.00244141 13.5233 0.0923867 13.2943 0.261169 13.1255C0.429952 12.9567 0.658858 12.862 0.897552 12.862H20.4386C21.3841 12.8622 22.2907 13.2381 22.9591 13.9069C23.6275 14.5756 24.0028 15.4825 24.0026 16.428C24.0023 17.3735 23.6264 18.2801 22.9577 18.9485C22.2889 19.6169 21.3821 19.9922 20.4366 19.992Z" fill="#0FC5D3"/>
</svg>
